<svg width="425" height="283" viewBox="0 0 425 283" fill="none" xmlns="http://www.w3.org/2000/svg">
<path d="M131.314 49.2759C132.764 48.6703 133.796 47.176 133.801 45.4158C133.813 43.1122 132.062 41.2331 129.897 41.2217C127.732 41.2104 125.97 43.0725 125.964 45.3762C125.959 47.1534 126.996 48.6646 128.463 49.2759C122.434 50.1815 122.706 56.7301 122.706 56.7301L136.963 56.798C136.969 56.798 137.292 50.1815 131.314 49.2759Z" fill="#E0E0E0"/>
<path d="M362.826 83.7171L356.213 76.6025L358.355 74.6158L362.922 79.5231L372.516 70.0935L374.567 72.1764L362.826 83.7171Z" fill="#F5F5F5"/>
<path d="M266.912 122.573C266.912 117.717 261.8 114.638 256.587 117.071C255.408 117.62 254.434 118.554 253.844 119.698C252.535 122.233 253.113 125.131 254.303 127.537L258.361 137.804C258.944 139.281 261.047 139.275 261.619 137.793L265.597 127.474C266.968 124.322 266.912 122.573 266.912 122.573ZM262.016 126.801C258.514 128.833 254.961 125.075 256.882 121.362C257.137 120.869 257.528 120.456 257.992 120.184C261.494 118.147 265.047 121.911 263.126 125.624C262.871 126.116 262.48 126.529 262.016 126.801Z" fill="#EBEBEB"/>
<path d="M60.0043 136.762C59.993 136.734 60.333 136.796 60.8033 136.479C61.0243 136.315 61.268 136.038 61.3757 135.647C61.4323 135.449 61.4267 135.234 61.4267 134.991C61.4267 134.747 61.4267 134.493 61.4323 134.221C61.455 132.036 61.4833 128.9 61.5173 125.04C61.5287 124.073 61.54 123.054 61.5513 121.995C61.557 121.469 61.5627 120.926 61.5683 120.377C61.5627 120.099 61.5967 119.816 61.5457 119.573C61.4947 119.318 61.37 119.08 61.1887 118.894C61.0073 118.707 60.7693 118.577 60.5087 118.526C60.2593 118.486 59.9477 118.509 59.6587 118.503C59.0693 118.503 58.4687 118.503 57.8623 118.509C56.644 118.509 55.3973 118.514 54.111 118.514C48.977 118.52 43.333 118.52 37.4113 118.526C36.7313 118.514 36.1363 119.103 36.091 119.771C36.0797 120.495 36.0683 121.22 36.0513 121.933C36.0287 123.376 36.0117 124.791 35.989 126.189C35.9437 128.98 35.904 131.668 35.8643 134.232C35.8587 134.555 35.853 134.872 35.8473 135.189C35.8303 135.494 35.8983 135.772 36.0513 136.021C36.2043 136.264 36.4253 136.457 36.686 136.553C36.941 136.666 37.2357 136.632 37.5473 136.638C38.7657 136.638 39.9443 136.643 41.0833 136.643C43.367 136.649 45.492 136.655 47.43 136.66C51.3003 136.677 54.434 136.694 56.6213 136.706C57.6923 136.717 58.531 136.728 59.1203 136.734C59.3923 136.74 59.6077 136.745 59.772 136.751C59.9307 136.751 60.0043 136.757 60.0043 136.762C60.0043 136.768 59.9307 136.774 59.7833 136.779C59.6247 136.785 59.4093 136.785 59.1317 136.796C58.5423 136.802 57.7037 136.813 56.6327 136.825C54.4453 136.836 51.306 136.853 47.4413 136.87C45.4977 136.875 43.3727 136.881 41.0947 136.887C39.9557 136.887 38.7713 136.892 37.5587 136.892C37.2697 136.887 36.9297 136.926 36.6067 136.791C36.2893 136.672 36.0173 136.44 35.836 136.151C35.6547 135.862 35.5697 135.506 35.5923 135.177C35.598 134.86 35.598 134.544 35.6037 134.221C35.6377 131.657 35.6717 128.968 35.7113 126.178C35.7283 124.786 35.751 123.365 35.768 121.922C35.7793 121.197 35.7907 120.467 35.8077 119.737C35.8643 118.933 36.5783 118.214 37.417 118.226C43.3387 118.231 48.9827 118.231 54.1167 118.237C55.3973 118.237 56.6497 118.243 57.868 118.243C58.4743 118.243 59.075 118.243 59.6643 118.248C59.9647 118.26 60.2367 118.226 60.5653 118.277C60.877 118.333 61.1603 118.497 61.3757 118.718C61.591 118.939 61.7327 119.222 61.795 119.522C61.8517 119.827 61.812 120.105 61.8177 120.377C61.8063 120.926 61.8007 121.463 61.7893 121.995C61.7723 123.054 61.7553 124.067 61.7383 125.04C61.6647 128.906 61.6023 132.036 61.5627 134.221C61.557 134.493 61.5513 134.747 61.5457 134.991C61.54 135.228 61.54 135.466 61.4777 135.67C61.3587 136.089 61.098 136.366 60.86 136.53C60.6163 136.689 60.3953 136.745 60.248 136.762C60.078 136.779 60.0043 136.762 60.0043 136.762Z" fill="#455A64"/>
<path d="M49.6741 126.008L52.7681 127.882L49.6061 129.738L46.4441 131.589L46.5121 127.859L46.5801 124.129L49.6741 126.008Z" fill="#455A64"/>
<path d="M336.317 71.9046C338.3 71.0726 339.711 69.0293 339.723 66.6238C339.734 63.4712 337.343 60.9015 334.385 60.8846C331.427 60.8732 329.013 63.4146 329.001 66.5729C328.99 69.001 330.412 71.0726 332.418 71.9046C324.168 73.1441 324.542 82.1039 324.542 82.1039L344.052 82.1944C344.052 82.1944 344.5 73.1385 336.317 71.9046Z" fill="#00629B"/>
<path d="M220.673 51.7377L189.032 54.7346L191.054 76.0388L222.696 73.0419L220.673 51.7377Z" fill="white"/>
<path d="M222.706 73.0365C222.706 73.0365 222.683 72.9006 222.655 72.6403C222.627 72.3743 222.587 71.995 222.536 71.5083C222.434 70.5121 222.287 69.0632 222.1 67.218C221.731 63.5107 221.21 58.2016 220.57 51.7436L220.7 51.8511C211.968 52.6888 200.974 53.7415 189.063 54.8792C189.029 54.9132 189.312 54.5736 189.193 54.7207V54.7264V54.7377V54.7603L189.199 54.8056L189.205 54.8962L189.222 55.0716L189.256 55.4282L189.324 56.1357C189.369 56.6055 189.414 57.0753 189.46 57.5451C189.55 58.4846 189.635 59.4129 189.726 60.3354C189.902 62.1806 190.072 63.9975 190.242 65.7804C190.576 69.3462 190.899 72.7761 191.205 76.0193L191.058 75.9004C200.362 75.0458 208.256 74.3213 213.838 73.8062C216.626 73.5572 218.836 73.3591 220.36 73.2233C221.108 73.161 221.692 73.1101 222.1 73.0761C222.292 73.0591 222.44 73.0478 222.553 73.0421C222.649 73.0365 222.706 73.0308 222.706 73.0365C222.712 73.0365 222.661 73.0478 222.564 73.0591C222.457 73.0704 222.309 73.0874 222.128 73.1101C221.726 73.1497 221.153 73.2119 220.417 73.2912C218.898 73.444 216.699 73.6647 213.928 73.9421C208.33 74.4911 200.408 75.2609 191.075 76.1721L190.939 76.1834L190.927 76.0476C190.616 72.8044 190.287 69.3745 189.947 65.8087C189.777 64.0258 189.601 62.2089 189.426 60.3637C189.335 59.4412 189.25 58.5129 189.159 57.5734C189.114 57.1036 189.069 56.6338 189.023 56.164L188.955 55.4565L188.921 55.0999L188.904 54.9245L188.899 54.8339L188.893 54.7886V54.766V54.7547V54.749C188.774 54.8905 189.057 54.5509 189.029 54.5849C200.94 53.4699 211.934 52.4341 220.672 51.6134L220.791 51.6021L220.802 51.7209C221.391 58.2186 221.879 63.556 222.219 67.2803C222.377 69.1198 222.508 70.5574 222.593 71.5479C222.632 72.0233 222.661 72.3969 222.683 72.6573C222.706 72.912 222.706 73.0365 222.706 73.0365Z" fill="#455A64"/>
<path d="M220.684 51.7331C220.69 51.7388 220.605 51.8463 220.44 52.0501C220.253 52.2708 220.004 52.5595 219.692 52.9161C219.012 53.6858 218.066 54.7612 216.904 56.08C214.502 58.7629 211.209 62.4362 207.543 66.534L207.458 66.6246L207.35 66.5567C207.084 66.3869 206.795 66.2058 206.506 66.019C201.678 62.9286 197.315 60.1269 194.119 58.0837C192.56 57.0705 191.291 56.2442 190.384 55.6499C189.965 55.3725 189.631 55.1461 189.376 54.9763C189.149 54.8178 189.03 54.7329 189.036 54.7216C189.041 54.7103 189.172 54.7839 189.41 54.9254C189.67 55.0839 190.016 55.2933 190.447 55.5536C191.37 56.1253 192.657 56.929 194.232 57.9082C197.439 59.9345 201.82 62.7079 206.665 65.7699C206.954 65.9511 207.243 66.1378 207.509 66.3076L207.322 66.3359C211.017 62.2607 214.332 58.6044 216.751 55.9385C217.947 54.6424 218.916 53.5896 219.607 52.8368C219.93 52.4916 220.197 52.2142 220.395 52.0048C220.582 51.8237 220.678 51.7275 220.684 51.7331Z" fill="#455A64"/>
<path d="M150.337 77.1569C150.291 77.1626 150.342 76.4041 150.019 75.108C149.866 74.4628 149.555 73.6987 149.073 72.8893C148.586 72.0856 147.889 71.2422 146.937 70.5291C145.99 69.8216 144.8 69.2273 143.424 68.9839C142.058 68.7518 140.522 68.7971 139.055 69.3574C138.318 69.6121 137.604 70.0027 136.952 70.4894C136.289 70.9705 135.694 71.5648 135.196 72.2497C134.176 73.6081 133.598 75.3514 133.581 77.1513C133.598 78.9511 134.17 80.6944 135.196 82.0528C135.689 82.7433 136.289 83.3376 136.952 83.8187C137.604 84.3055 138.318 84.696 139.055 84.9507C140.517 85.5111 142.058 85.5507 143.424 85.3243C144.795 85.0866 145.99 84.4866 146.937 83.7791C147.883 83.066 148.586 82.2283 149.073 81.4189C149.555 80.6095 149.866 79.8454 150.019 79.2002C150.342 77.904 150.286 77.1513 150.337 77.1569C150.342 77.1569 150.342 77.2022 150.342 77.2928C150.342 77.4003 150.337 77.5305 150.337 77.6946C150.337 77.8701 150.325 78.0908 150.286 78.3455C150.252 78.6002 150.218 78.9002 150.127 79.2285C149.991 79.8907 149.691 80.6718 149.215 81.5038C148.733 82.3358 148.03 83.2018 147.067 83.9433C146.104 84.6791 144.885 85.3017 143.474 85.562C142.069 85.8111 140.483 85.7771 138.97 85.2054C138.205 84.9451 137.468 84.5489 136.794 84.0451C136.108 83.5527 135.485 82.9358 134.975 82.2283C133.915 80.8246 133.314 79.0191 133.297 77.1569C133.314 75.2948 133.915 73.4892 134.975 72.0856C135.49 71.3724 136.108 70.7611 136.794 70.2687C137.468 69.765 138.205 69.3688 138.97 69.1084C140.488 68.5424 142.075 68.5028 143.474 68.7518C144.885 69.0122 146.104 69.6348 147.067 70.3706C148.03 71.112 148.733 71.978 149.215 72.81C149.696 73.6421 149.991 74.4288 150.127 75.0854C150.218 75.4136 150.252 75.708 150.286 75.9683C150.331 76.223 150.337 76.4438 150.337 76.6192C150.337 76.7834 150.342 76.9135 150.342 77.0211C150.342 77.106 150.342 77.1569 150.337 77.1569Z" fill="#263238"/>
<path d="M161.687 91.2389C161.642 91.3068 158.655 89.3824 155.012 86.943C151.368 84.5035 148.455 82.4659 148.501 82.398C148.546 82.3301 151.532 84.2545 155.176 86.6939C158.814 89.139 161.732 91.171 161.687 91.2389Z" fill="#263238"/>
<path d="M186.734 106.804L180.115 99.6894L182.263 97.7028L186.83 102.61L196.424 93.1804L198.475 95.2633L186.734 106.804Z" fill="#00629B"/>
<path d="M372.419 99.995C372.419 99.995 372.526 99.9893 372.742 99.995C372.849 100.001 372.985 100.001 373.138 100.006C373.297 100.023 373.478 100.052 373.682 100.08C374.493 100.216 375.728 100.544 376.997 101.529C378.238 102.491 379.508 104.189 379.78 106.481C379.836 107.053 379.836 107.642 379.836 108.242C379.836 108.847 379.842 109.47 379.842 110.115C379.848 111.4 379.848 112.764 379.853 114.19C379.859 115.622 379.859 117.122 379.865 118.69C379.865 119.477 379.87 120.275 379.87 121.09C379.893 121.899 379.848 122.765 379.621 123.592C379.19 125.256 378.131 126.835 376.595 127.87C375.83 128.386 374.957 128.77 374.022 128.969C373.087 129.184 372.113 129.138 371.161 129.15C363.46 129.155 354.931 129.161 345.865 129.167L345.967 129.121C344.148 130.938 342.215 132.868 340.26 134.827L340.011 135.076V134.719C340.011 133.904 340.011 133.027 340.011 132.144C340.011 131.074 340.011 130.01 340.011 129.019L340.158 129.167C339.541 129.167 338.912 129.178 338.283 129.099C337.654 129.025 337.047 128.855 336.464 128.629C335.296 128.17 334.276 127.395 333.483 126.455C332.707 125.499 332.163 124.367 331.919 123.178C331.811 122.584 331.766 121.973 331.772 121.384C331.772 120.795 331.772 120.207 331.772 119.624C331.772 117.286 331.772 114.994 331.777 112.753C331.777 111.632 331.777 110.523 331.777 109.425C331.8 108.326 331.721 107.245 331.879 106.159C332.049 105.083 332.452 104.059 333.041 103.176C333.63 102.293 334.407 101.557 335.279 101.014C336.152 100.465 337.127 100.114 338.113 99.9667C339.11 99.8252 340.079 99.8931 341.025 99.8761C344.828 99.8818 348.364 99.8874 351.588 99.8931C358.031 99.9101 363.239 99.927 366.843 99.9384C368.633 99.9497 370.022 99.961 370.979 99.9667C371.444 99.9723 371.801 99.978 372.056 99.9836C372.294 99.9836 372.419 99.995 372.419 99.995C372.419 99.995 372.294 100.006 372.05 100.012C371.801 100.018 371.444 100.018 370.974 100.029C370.016 100.035 368.628 100.046 366.837 100.057C363.233 100.069 358.031 100.086 351.582 100.103C348.358 100.108 344.816 100.114 341.02 100.119C340.073 100.136 339.093 100.074 338.141 100.216C337.189 100.363 336.248 100.702 335.404 101.235C334.56 101.767 333.812 102.474 333.245 103.329C332.678 104.183 332.287 105.168 332.129 106.204C331.976 107.234 332.055 108.332 332.038 109.43C332.038 110.528 332.038 111.638 332.038 112.758C332.038 115 332.038 117.298 332.044 119.63C332.072 120.795 331.964 121.99 332.185 123.127C332.423 124.271 332.945 125.357 333.687 126.28C334.452 127.18 335.432 127.927 336.554 128.369C337.115 128.589 337.699 128.748 338.3 128.821C338.895 128.901 339.512 128.889 340.136 128.889H340.283V129.036C340.283 130.027 340.283 131.091 340.283 132.161C340.283 133.044 340.283 133.921 340.283 134.736L340.034 134.634C341.994 132.676 343.921 130.751 345.746 128.935L345.791 128.889H345.853C354.914 128.895 363.448 128.901 371.149 128.906C372.113 128.901 373.059 128.946 373.96 128.742C374.861 128.55 375.705 128.182 376.448 127.684C377.932 126.688 378.964 125.165 379.389 123.552C379.61 122.743 379.655 121.927 379.638 121.107C379.638 120.292 379.644 119.488 379.644 118.707C379.649 117.139 379.649 115.639 379.655 114.207C379.661 112.775 379.661 111.417 379.666 110.132C379.666 109.487 379.672 108.864 379.672 108.259C379.678 107.653 379.678 107.07 379.627 106.515C379.372 104.268 378.142 102.593 376.929 101.631C375.694 100.646 374.476 100.301 373.671 100.153C373.467 100.119 373.286 100.086 373.133 100.069C372.98 100.057 372.849 100.052 372.742 100.04C372.526 100.006 372.419 99.995 372.419 99.995Z" fill="#263238"/>
<path d="M349.945 115.481C349.922 115.481 349.911 115.334 349.837 115.096C349.763 114.864 349.593 114.525 349.236 114.27C348.891 114.015 348.335 113.879 347.808 114.078C347.281 114.264 346.828 114.825 346.834 115.476C346.828 116.126 347.281 116.687 347.808 116.874C348.341 117.077 348.896 116.942 349.236 116.681C349.593 116.426 349.763 116.087 349.837 115.855C349.911 115.628 349.916 115.481 349.945 115.481C349.962 115.481 349.996 115.628 349.95 115.894C349.905 116.155 349.752 116.545 349.367 116.857C348.993 117.168 348.352 117.36 347.718 117.134C347.089 116.93 346.533 116.262 346.545 115.481C346.539 114.7 347.089 114.032 347.718 113.829C348.352 113.602 348.993 113.795 349.367 114.106C349.752 114.417 349.905 114.813 349.95 115.068C349.99 115.334 349.956 115.481 349.945 115.481Z" fill="#263238"/>
<path d="M357.453 115.407C357.43 115.407 357.425 115.26 357.345 115.022C357.272 114.79 357.102 114.45 356.745 114.196C356.399 113.941 355.844 113.805 355.317 114.003C354.79 114.19 354.336 114.75 354.342 115.401C354.336 116.052 354.79 116.613 355.317 116.799C355.849 117.003 356.405 116.867 356.745 116.607C357.102 116.352 357.272 116.013 357.345 115.781C357.425 115.554 357.43 115.407 357.453 115.407C357.47 115.407 357.504 115.554 357.459 115.82C357.413 116.081 357.26 116.471 356.875 116.782C356.501 117.094 355.861 117.286 355.226 117.06C354.597 116.856 354.042 116.188 354.053 115.407C354.047 114.626 354.597 113.958 355.226 113.754C355.861 113.528 356.501 113.72 356.875 114.032C357.26 114.343 357.413 114.739 357.459 114.994C357.504 115.26 357.47 115.407 357.453 115.407Z" fill="#263238"/>
<path d="M364.967 115.407C364.945 115.407 364.939 115.26 364.86 115.022C364.786 114.79 364.616 114.45 364.259 114.196C363.913 113.941 363.358 113.805 362.831 114.003C362.304 114.19 361.851 114.75 361.856 115.401C361.851 116.052 362.304 116.613 362.831 116.799C363.364 117.003 363.919 116.867 364.259 116.607C364.616 116.352 364.786 116.013 364.86 115.781C364.939 115.554 364.945 115.407 364.967 115.407C364.984 115.407 365.018 115.554 364.973 115.82C364.928 116.081 364.775 116.471 364.389 116.782C364.015 117.094 363.375 117.286 362.74 117.06C362.111 116.856 361.556 116.188 361.567 115.407C361.562 114.626 362.111 113.958 362.74 113.754C363.375 113.528 364.015 113.72 364.389 114.032C364.775 114.343 364.928 114.739 364.973 114.994C365.018 115.26 364.984 115.407 364.967 115.407Z" fill="#263238"/>
<path d="M88.0879 76.5458C88.0879 71.6895 82.9766 68.6104 77.7633 71.0442C76.5846 71.5933 75.6099 72.5272 75.0206 73.6705C73.7116 76.2062 74.2896 79.1041 75.4796 81.5096L79.5369 91.7768C80.1206 93.2541 82.2229 93.2484 82.7953 91.7655L86.7733 81.4473C88.1503 78.3004 88.0879 76.5458 88.0879 76.5458ZM83.1919 80.7794C79.6899 82.8114 76.1369 79.0531 78.0579 75.3402C78.3129 74.8478 78.7039 74.4346 79.1686 74.1629C82.6706 72.1253 86.2236 75.8892 84.3026 79.6022C84.0533 80.0946 83.6623 80.5078 83.1919 80.7794Z" fill="#00629B"/>
<path d="M106.102 93.322C106.108 93.322 106.136 93.3843 106.176 93.5088C106.221 93.639 106.284 93.8201 106.363 94.0578C106.527 94.5502 106.76 95.2634 107.071 96.1973C107.683 98.0821 108.584 100.85 109.74 104.404L109.774 104.518L109.655 104.495C106.499 103.918 102.646 103.21 98.2372 102.406L98.1578 102.389V102.31L98.3108 102.389C94.8938 104.97 90.3718 107.11 85.1018 107.834C83.7872 108.01 82.4328 108.112 81.0502 108.106C79.6732 108.021 78.2565 108.032 76.8455 107.755C75.4175 107.597 74.0122 107.172 72.5728 106.798C71.8758 106.544 71.1732 106.289 70.4648 106.029C70.1022 105.916 69.7678 105.746 69.4222 105.576C69.0765 105.412 68.7365 105.248 68.3908 105.078C65.6538 103.702 63.0472 101.857 60.7635 99.5593C58.4685 97.267 56.5702 94.4823 55.1592 91.4089C52.3315 85.2622 51.6968 77.7797 53.8955 70.8575C55.9015 64.5522 60.1232 59.2432 65.2628 55.7623C70.4648 52.3436 76.5395 50.7135 82.2515 50.9965C87.9805 51.1663 93.2675 53.17 97.4438 56.0339C101.586 58.9715 104.731 62.6901 106.635 66.5615C108.59 70.416 109.457 74.2988 109.661 77.7061C109.933 81.1247 109.463 84.0849 108.885 86.4112C108.295 88.7487 107.547 90.475 107.003 91.6184C106.726 92.19 106.505 92.6202 106.346 92.8919C106.21 93.1352 106.142 93.2484 106.102 93.322C106.136 93.2484 106.199 93.1352 106.318 92.8919C106.471 92.5975 106.686 92.1674 106.952 91.5901C107.479 90.4411 108.205 88.7148 108.777 86.3829C109.332 84.0566 109.786 81.1134 109.502 77.7117C109.281 74.3271 108.403 70.4669 106.454 66.6521C104.555 62.8146 101.422 59.1356 97.3078 56.232C93.1598 53.402 87.9238 51.4267 82.2458 51.2682C76.5905 50.9965 70.5782 52.6153 65.4328 56.0056C60.3442 59.4582 56.1678 64.7107 54.1845 70.9537C52.0085 77.8023 52.6375 85.2112 55.4312 91.2957C56.8252 94.3408 58.7065 97.0972 60.9732 99.3726C63.2342 101.654 65.8125 103.482 68.5212 104.851C68.8612 105.016 69.2012 105.18 69.5412 105.344C69.8812 105.508 70.2155 105.678 70.5725 105.791C71.2752 106.046 71.9722 106.306 72.6635 106.555C74.0858 106.929 75.4742 107.353 76.8965 107.506C78.2962 107.783 79.7015 107.778 81.0672 107.863C82.4385 107.874 83.7815 107.778 85.0848 107.602C90.3152 106.895 94.8088 104.789 98.2145 102.237L98.3675 102.123V102.316L98.2882 102.22C102.691 103.046 106.544 103.77 109.701 104.359L109.621 104.45C108.494 100.889 107.615 98.116 107.015 96.2256C106.72 95.286 106.499 94.5672 106.34 94.0748C106.267 93.8371 106.21 93.656 106.17 93.5201C106.119 93.3899 106.102 93.322 106.102 93.322Z" fill="#263238"/>
<path d="M289.821 69.567C289.793 69.567 289.753 69.2161 289.708 68.5596C289.691 68.2313 289.662 67.8238 289.572 67.354C289.498 66.8785 289.43 66.3295 289.254 65.7296C288.988 64.5183 288.438 63.0807 287.566 61.5525C286.687 60.0356 285.418 58.4451 283.678 57.0811C281.944 55.734 279.751 54.5681 277.213 54.07C274.685 53.5832 271.824 53.6002 269.081 54.5737C267.704 55.0209 266.367 55.7057 265.131 56.583C264.497 56.9962 263.936 57.5226 263.346 58.0263C262.814 58.5866 262.258 59.1357 261.794 59.7753C259.839 62.2487 258.694 65.4635 258.581 68.7973C258.53 72.1367 259.516 75.3968 261.352 77.9665C261.782 78.6287 262.315 79.206 262.814 79.789C263.375 80.321 263.907 80.8757 264.525 81.3172C265.715 82.2568 267.013 83.0095 268.373 83.5189C271.064 84.6226 273.92 84.7811 276.47 84.4189C279.037 84.0397 281.281 82.9869 283.078 81.7247C284.88 80.4512 286.228 78.923 287.175 77.4458C288.115 75.9628 288.739 74.5592 289.062 73.3592C289.266 72.7706 289.362 72.2272 289.458 71.7518C289.572 71.282 289.623 70.8802 289.651 70.5519C289.736 69.9123 289.787 69.567 289.821 69.567C289.849 69.567 289.855 69.918 289.832 70.5802C289.832 70.9141 289.81 71.3273 289.719 71.8084C289.645 72.2895 289.577 72.8498 289.396 73.4611C289.113 74.7007 288.529 76.1666 287.594 77.7174C286.653 79.2626 285.293 80.8757 283.446 82.2341C281.604 83.5812 279.275 84.7132 276.595 85.1434C273.932 85.5565 270.934 85.4207 268.089 84.2774C266.656 83.751 265.285 82.9643 264.021 81.9851C263.369 81.5153 262.802 80.938 262.213 80.3776C261.68 79.7607 261.119 79.1551 260.66 78.4589C258.717 75.7591 257.663 72.3065 257.719 68.7803C257.833 65.2598 259.057 61.8638 261.125 59.2602C261.618 58.5866 262.207 58.0093 262.768 57.4207C263.386 56.8886 263.981 56.3396 264.655 55.9038C265.959 54.9869 267.37 54.2681 268.826 53.8096C271.722 52.8078 274.725 52.8135 277.36 53.3568C280.018 53.9172 282.29 55.1624 284.064 56.5943C285.843 58.0433 287.124 59.7187 287.991 61.3091C288.846 62.9052 289.362 64.3995 289.583 65.6503C289.736 66.2673 289.781 66.8333 289.827 67.32C289.889 67.8068 289.895 68.2143 289.878 68.5482C289.872 69.2218 289.849 69.567 289.821 69.567Z" fill="#455A64"/>
<path d="M286.653 59.6847C286.687 59.7356 286.404 59.979 285.848 60.3922C285.548 60.6072 285.208 60.8506 284.828 61.1223C284.624 61.2581 284.415 61.4166 284.182 61.5638C283.933 61.694 283.672 61.8298 283.4 61.9713C281.281 63.1939 277.921 64.4447 274.09 64.3145C273.614 64.2919 273.144 64.2749 272.679 64.2523C272.22 64.1787 271.772 64.1108 271.325 64.0429C271.104 64.0032 270.883 63.9749 270.667 63.9353C270.458 63.8787 270.242 63.8221 270.038 63.7655C269.625 63.6523 269.211 63.5504 268.82 63.4259C267.267 62.8882 265.924 62.2543 264.87 61.6091C262.745 60.3299 261.714 59.1639 261.793 59.0847C261.878 58.9885 263.034 59.962 265.171 61.0714C266.23 61.6374 267.556 62.1807 269.058 62.6618C269.438 62.7694 269.834 62.8543 270.231 62.9561C270.429 63.0071 270.633 63.058 270.837 63.109C271.047 63.1429 271.257 63.1712 271.466 63.2052C271.891 63.2674 272.322 63.3297 272.758 63.3976C273.2 63.4146 273.648 63.4316 274.101 63.4542C277.745 63.5787 280.975 62.4864 283.117 61.4336C283.389 61.3147 283.655 61.2015 283.905 61.094C284.143 60.9695 284.364 60.8336 284.573 60.7204C284.976 60.4997 285.333 60.3016 285.656 60.1261C286.262 59.7922 286.613 59.6394 286.653 59.6847Z" fill="#455A64"/>
<path d="M261.312 78.9173C261.278 78.8664 261.562 78.623 262.117 78.2098C262.417 77.9947 262.757 77.7514 263.137 77.4797C263.341 77.3438 263.551 77.1854 263.783 77.0382C264.032 76.908 264.293 76.7722 264.565 76.6307C266.684 75.4081 270.039 74.1573 273.875 74.2874C274.351 74.3101 274.822 74.3271 275.286 74.3497C275.745 74.4233 276.193 74.4912 276.641 74.5591C276.862 74.5987 277.083 74.627 277.298 74.6667C277.513 74.7233 277.723 74.7799 277.927 74.8365C278.341 74.9497 278.754 75.0515 279.145 75.1761C280.698 75.7138 282.041 76.3477 283.095 76.9929C285.22 78.2721 286.251 79.438 286.172 79.5173C286.087 79.6135 284.931 78.64 282.795 77.5306C281.735 76.9703 280.409 76.4213 278.907 75.9402C278.528 75.8326 278.131 75.7477 277.734 75.6458C277.536 75.5949 277.332 75.544 277.128 75.493C276.918 75.4591 276.709 75.4308 276.499 75.3968C276.074 75.3345 275.643 75.2723 275.207 75.2044C274.765 75.1874 274.317 75.1704 273.864 75.1478C270.22 75.0232 266.99 76.1156 264.848 77.1684C264.576 77.2872 264.31 77.4004 264.061 77.508C263.823 77.6325 263.602 77.7683 263.392 77.8815C262.99 78.1023 262.633 78.3004 262.31 78.4758C261.703 78.8154 261.346 78.9683 261.312 78.9173Z" fill="#455A64"/>
<path d="M289.81 69.935C289.805 70.1727 282.71 70.1954 273.966 69.9859C265.217 69.7765 258.134 69.4086 258.139 69.1652C258.145 68.9275 265.24 68.9049 273.983 69.1143C282.733 69.3294 289.816 69.6973 289.81 69.935Z" fill="#455A64"/>
<path d="M273.246 84.985C273.008 84.9793 272.986 77.893 273.195 69.1653C273.405 60.4319 273.773 53.3569 274.017 53.3626C274.255 53.3682 274.278 60.4489 274.068 69.1823C273.853 77.9157 273.484 84.9907 273.246 84.985Z" fill="#455A64"/>
<path d="M273.246 84.9622C273.184 85.0528 271.444 83.8698 269.427 81.1983C268.43 79.8625 267.387 78.1419 266.594 76.0647C265.806 73.9931 265.313 71.548 265.37 68.9784C265.415 66.3974 266.067 63.9862 266.968 61.96C267.874 59.928 269.008 58.2696 270.062 56.9848C272.192 54.4095 273.954 53.2719 274.011 53.3624C274.096 53.4586 272.504 54.7548 270.543 57.364C269.574 58.6658 268.532 60.3129 267.704 62.2769C266.877 64.2409 266.282 66.5389 266.242 68.9897C266.191 71.4461 266.633 73.778 267.353 75.7873C268.073 77.7966 269.025 79.4946 269.931 80.8417C271.762 83.5359 273.337 84.866 273.246 84.9622Z" fill="#455A64"/>
<path d="M274.368 53.3681C274.431 53.2775 276.17 54.4605 278.188 57.132C279.185 58.4678 280.228 60.1884 281.015 62.2656C281.803 64.3372 282.296 66.7823 282.239 69.3519C282.194 71.9329 281.542 74.3441 280.641 76.3703C279.735 78.4023 278.601 80.0607 277.547 81.3455C275.417 83.9208 273.654 85.0584 273.598 84.9679C273.513 84.8717 275.105 83.5755 277.066 80.9663C278.035 79.6645 279.077 78.0174 279.905 76.0534C280.732 74.0894 281.327 71.7914 281.367 69.3406C281.418 66.8842 280.976 64.5523 280.256 62.543C279.536 60.5337 278.584 58.8357 277.678 57.4886C275.853 54.7944 274.283 53.4643 274.368 53.3681Z" fill="#455A64"/>
<path d="M258.156 92.7447C258.156 92.7504 258.088 92.773 257.963 92.8013C257.827 92.8353 257.646 92.8805 257.402 92.9371C256.898 93.056 256.167 93.2258 255.203 93.4522C253.265 93.8937 250.432 94.5446 246.783 95.3823L246.669 95.4106L246.703 95.2974C247.559 92.2127 248.607 88.4374 249.803 84.1245L249.826 84.0453L249.905 84.0509L249.814 84.1981C247.542 80.57 245.814 75.8779 245.559 70.5688C245.496 69.2444 245.519 67.8916 245.649 66.5163C245.853 65.1522 245.972 63.7429 246.375 62.3618C246.658 60.9525 247.208 59.5941 247.706 58.1961C248.024 57.5225 248.341 56.849 248.664 56.1641C248.811 55.8132 249.01 55.4906 249.208 55.168C249.401 54.8397 249.599 54.5114 249.792 54.1831C251.407 51.5852 253.481 49.1514 255.974 47.0855C258.462 45.0083 261.408 43.3669 264.599 42.2349C270.979 39.9709 278.493 40.0048 285.203 42.8065C291.311 45.3648 296.23 50.0343 299.245 55.4566C302.197 60.9355 303.279 67.1275 302.486 72.7819C301.812 78.4702 299.341 83.5472 296.111 87.4469C292.813 91.3071 288.824 94.1088 284.795 95.6539C280.777 97.2557 276.827 97.7764 273.41 97.6746C269.976 97.6406 267.069 96.9105 264.797 96.1294C262.519 95.3313 260.864 94.437 259.771 93.7975C259.227 93.4692 258.819 93.2145 258.558 93.0277C258.331 92.8692 258.224 92.79 258.156 92.7447C258.224 92.79 258.337 92.8579 258.569 92.9994C258.853 93.1805 259.261 93.4296 259.81 93.7465C260.91 94.3691 262.57 95.2464 264.842 96.0218C267.109 96.7803 270.005 97.4934 273.422 97.5104C276.822 97.5953 280.743 97.0633 284.727 95.4615C288.722 93.9107 292.671 91.1203 295.935 87.2885C299.126 83.417 301.562 78.3796 302.225 72.7479C303.002 67.1445 301.919 61.0204 299.001 55.5981C296.009 50.2268 291.141 45.6082 285.095 43.0782C278.459 40.3048 271.013 40.2708 264.701 42.5065C261.539 43.6272 258.62 45.246 256.155 47.3006C253.685 49.3438 251.628 51.7493 250.024 54.319C249.831 54.6472 249.633 54.9699 249.44 55.2925C249.248 55.6151 249.049 55.9321 248.902 56.2773C248.585 56.9509 248.267 57.6244 247.95 58.2866C247.451 59.6677 246.907 61.0147 246.624 62.4128C246.222 63.7825 246.103 65.1748 245.899 66.5276C245.763 67.8916 245.74 69.2331 245.797 70.5462C246.035 75.81 247.74 80.4682 249.979 84.0849L250.081 84.249L249.888 84.2321L249.99 84.1641C248.777 88.4714 247.712 92.241 246.845 95.3257L246.76 95.2408C250.415 94.4314 253.254 93.8031 255.192 93.3786C256.155 93.1692 256.892 93.0107 257.396 92.9032C257.64 92.8522 257.827 92.8126 257.963 92.7843C258.088 92.756 258.156 92.7504 258.156 92.7447Z" fill="#263238"/>
<path d="M282.03 106.352C279.259 106.997 277.485 109.798 276.89 112.578C276.301 115.357 276.584 118.243 276.323 121.073C276.057 123.903 275.065 126.909 272.68 128.46C273.473 128.686 274.261 128.918 275.054 129.144C274.595 130.616 273.586 131.912 272.266 132.71C273.184 133.423 274.346 133.82 275.507 133.814C274.113 134.182 273.722 136.174 274.499 137.391C275.269 138.608 276.737 139.185 278.137 139.542C279.786 139.961 281.548 140.181 283.18 139.695C285.475 139.01 287.192 136.995 288.07 134.765C288.949 132.535 289.107 130.101 289.175 127.707C289.345 121.713 288.994 115.657 287.464 109.855C287.096 108.451 286.58 106.963 285.384 106.136C284.189 105.31 282.149 105.644 281.786 107.053" fill="#263238"/>
<path d="M344.663 192.87C344.006 190.369 340.175 176.275 336.747 167.072C332.945 156.856 325.108 154.75 325.108 154.75C307.456 148.734 291.595 148.7 274.657 154.564C274.113 154.733 273.586 154.909 273.082 155.107C273.065 155.113 273.048 155.118 273.025 155.124C260.462 160.048 259.165 173.304 259.165 173.304L253.883 205.47C253.827 205.724 253.787 205.985 253.759 206.239L253.708 206.545H253.73C253.526 209.573 255.266 212.528 258.048 213.807C265.426 217.197 272.464 216.393 278.516 213.897L274.119 220.293H301.5H326.473L322.971 211.837L324.133 206.754L332.242 216.501C333.211 217.667 334.514 218.516 335.976 218.935C345.326 220.021 346.839 206.115 345.077 198.021" fill="#00629B"/>
<path d="M311.496 151.241C311.496 151.241 303.053 193.68 300.072 193.363C297.092 193.046 283.14 152.039 283.14 152.039C283.14 152.039 300.979 147.29 311.496 151.241Z" fill="#FFBE9D"/>
<path d="M287.537 154.371C287.492 149.486 287.356 144.341 287.356 144.341C287.356 144.341 281.049 143.334 279.695 135.133C278.403 127.31 279.581 109.215 279.581 109.215C288.631 105.468 299.386 107.863 305.898 115.073L305.609 154.761C305.575 159.369 301.579 163.008 296.644 162.934C291.651 162.861 287.577 159.029 287.537 154.371Z" fill="#FFBE9D"/>
<path d="M281.673 122.907C281.656 123.462 282.115 123.937 282.698 123.965C283.276 123.994 283.764 123.564 283.781 123.009C283.798 122.454 283.339 121.979 282.761 121.951C282.171 121.922 281.69 122.352 281.673 122.907Z" fill="#263238"/>
<path d="M280.284 122.16C280.415 122.296 281.214 121.701 282.347 121.696C283.48 121.673 284.319 122.256 284.438 122.115C284.5 122.052 284.364 121.803 284.002 121.543C283.645 121.283 283.033 121.033 282.324 121.039C281.616 121.045 281.027 121.311 280.687 121.577C280.335 121.849 280.216 122.098 280.284 122.16Z" fill="#263238"/>
<path d="M293.147 123.456C293.13 124.011 293.589 124.486 294.173 124.514C294.751 124.543 295.239 124.112 295.256 123.558C295.273 123.003 294.814 122.528 294.236 122.499C293.646 122.471 293.164 122.901 293.147 123.456Z" fill="#263238"/>
<path d="M292.121 122.499C292.252 122.635 293.051 122.041 294.184 122.035C295.317 122.013 296.156 122.596 296.275 122.454C296.337 122.392 296.201 122.143 295.839 121.882C295.482 121.622 294.87 121.373 294.161 121.379C293.453 121.384 292.864 121.65 292.524 121.916C292.178 122.188 292.059 122.437 292.121 122.499Z" fill="#263238"/>
<path d="M288.059 130.927C288.064 130.865 287.356 130.746 286.211 130.605C285.922 130.576 285.645 130.52 285.599 130.322C285.531 130.112 285.65 129.801 285.786 129.461C286.053 128.759 286.336 128.024 286.631 127.254C287.804 124.107 288.648 121.526 288.518 121.481C288.393 121.435 287.339 123.948 286.166 127.09C285.883 127.865 285.616 128.607 285.361 129.314C285.254 129.642 285.067 130.016 285.22 130.452C285.299 130.667 285.514 130.825 285.701 130.871C285.888 130.927 286.053 130.927 286.194 130.938C287.339 130.989 288.053 130.995 288.059 130.927Z" fill="#263238"/>
<path d="M287.356 144.341C287.356 144.341 292.887 144.664 298.35 141.342C298.35 141.342 295.715 147.002 287.481 146.283L287.356 144.341Z" fill="#EB996E"/>
<path d="M288.552 133.655C288.954 133.112 289.668 132.812 290.382 132.886C290.875 132.936 291.374 133.169 291.674 133.57C291.975 133.967 292.043 134.538 291.771 134.923C291.465 135.353 290.83 135.461 290.286 135.308C289.742 135.155 289.277 134.804 288.83 134.453C288.705 134.357 288.58 134.255 288.501 134.119C288.422 133.984 288.405 133.808 288.501 133.695" fill="#EB996E"/>
<path d="M291.402 131.691C291.215 131.68 291.221 132.914 290.172 133.791C289.124 134.674 287.809 134.544 287.804 134.714C287.787 134.793 288.098 134.951 288.654 134.963C289.198 134.98 289.991 134.799 290.631 134.261C291.272 133.723 291.544 133.004 291.583 132.501C291.623 131.991 291.487 131.686 291.402 131.691Z" fill="#263238"/>
<path d="M301.466 108.457C298.536 112.793 290.648 117.338 284.965 118.464C285.616 117.575 289.079 115.357 289.73 114.474C287.18 116.449 283.525 119.092 280.103 119.324C279.695 119.353 279.258 119.358 278.918 119.16C278.459 118.894 278.357 118.356 278.295 117.881C278.04 115.877 278.114 112.436 278.403 110.438C278.686 108.44 279.57 106.442 281.276 105.078C283.44 103.346 286.58 102.871 289.543 102.746C292.025 102.644 294.592 102.746 296.876 103.601C299.165 104.455 301.137 106.193 301.506 108.316" fill="#263238"/>
<path d="M311.184 128.318C311.558 126.184 311.853 124.164 311.91 122.816C312.08 118.577 313.349 103.267 298.746 104.784L299.573 108.899C299.573 108.899 296.853 118.43 303.121 124.86C303.121 124.86 301.336 138.285 305.699 142.627C305.699 142.621 310.38 132.897 311.184 128.318Z" fill="#263238"/>
<path d="M302.934 124.146C303.812 123.971 304.741 123.988 305.58 124.299C306.419 124.611 307.161 125.227 307.529 126.043C307.898 126.858 307.869 127.82 307.569 128.669C307.269 129.512 306.719 130.254 306.084 130.888C305.625 131.34 305.11 131.759 304.492 131.957C303.88 132.155 303.155 132.099 302.662 131.686" fill="#FFBE9D"/>
<path d="M303.449 129.467C303.347 129.501 303.733 130.027 304.537 129.807C304.923 129.705 305.297 129.36 305.523 128.935C305.75 128.505 305.897 128.029 305.954 127.475C306.005 126.926 305.88 126.343 305.574 125.93C305.285 125.511 304.809 125.262 304.413 125.256C303.585 125.245 303.33 125.816 303.427 125.833C303.495 125.901 303.812 125.601 304.356 125.731C304.877 125.822 305.387 126.535 305.285 127.424C305.195 128.329 304.849 129.156 304.367 129.365C303.869 129.626 303.506 129.393 303.449 129.467Z" fill="#EB996E"/>
<path d="M274.125 193.906C274.045 193.906 273.977 190.572 273.977 186.458C273.977 182.343 274.045 179.009 274.125 179.009C274.204 179.009 274.272 182.343 274.272 186.458C274.272 190.572 274.204 193.906 274.125 193.906Z" fill="#263238"/>
<path d="M295.403 178.703C295.403 178.703 288.053 178.783 287.589 180.407C286.818 183.107 288.195 197.891 288.195 197.891L294.967 200.138C294.967 200.138 298.231 199.385 296.723 193.114C295.216 186.842 292.247 181.822 292.247 181.822C292.247 181.822 301.245 182.071 300.99 180.067C300.741 178.064 295.403 178.703 295.403 178.703Z" fill="#FFBE9D"/>
<path d="M292.479 183.067C292.881 182.988 301.88 182.246 301.313 183.684C300.747 185.122 292.479 185.478 292.479 185.478V183.067Z" fill="#FFBE9D"/>
<path d="M321.373 161.322L320.262 189.372L316.16 200.143L290.954 200.664L289.934 165.917L321.373 161.322Z" fill="#263238"/>
<path d="M287.005 188.592C287.011 188.603 286.903 188.654 286.699 188.75C286.461 188.858 286.161 188.988 285.793 189.152C284.965 189.508 283.826 189.995 282.438 190.589C279.559 191.789 275.644 193.419 271.32 195.225C269.144 196.119 267.076 196.968 265.183 197.744C263.29 198.508 261.596 199.198 260.281 199.996C258.961 200.772 258.054 201.643 257.539 202.323C257.023 203.002 256.83 203.449 256.802 203.432C256.791 203.426 256.842 203.319 256.938 203.109C257.029 202.9 257.199 202.606 257.448 202.255C257.941 201.542 258.842 200.625 260.174 199.815C261.488 198.983 263.2 198.27 265.075 197.489C266.962 196.708 269.031 195.848 271.201 194.948C275.542 193.176 279.469 191.574 282.353 190.391C283.758 189.831 284.909 189.373 285.747 189.044C286.127 188.903 286.433 188.784 286.677 188.693C286.886 188.62 287 188.58 287.005 188.592Z" fill="#263238"/>
<path d="M295.34 199.583C295.357 199.595 295.159 199.838 294.791 200.257C294.422 200.676 293.867 201.276 293.159 201.983C291.753 203.409 289.708 205.283 287.367 207.247C285.022 209.205 282.817 210.886 281.202 212.064C280.392 212.652 279.729 213.116 279.264 213.433C278.8 213.745 278.539 213.914 278.528 213.897C278.516 213.88 278.754 213.682 279.196 213.343C279.684 212.969 280.313 212.482 281.078 211.899C282.664 210.682 284.84 208.973 287.181 207.02C289.521 205.062 291.578 203.217 293.017 201.836C293.742 201.151 294.315 200.574 294.711 200.183C295.097 199.787 295.323 199.572 295.34 199.583Z" fill="#263238"/>
<path d="M333.302 217.537C333.239 217.588 329.539 213.36 325.045 208.085C320.546 202.809 316.948 198.491 317.01 198.44C317.072 198.389 320.767 202.617 325.272 207.892C329.766 213.167 333.364 217.486 333.302 217.537Z" fill="#263238"/>
<path d="M340.424 197.155C340.419 197.172 340.124 197.07 339.603 196.866C339.081 196.662 338.339 196.345 337.427 195.938C335.602 195.123 333.12 193.895 330.474 192.372C327.827 190.844 325.527 189.304 323.912 188.133C323.101 187.55 322.455 187.057 322.019 186.712C321.583 186.367 321.345 186.163 321.356 186.146C321.367 186.129 321.628 186.299 322.087 186.616C322.591 186.961 323.243 187.414 324.031 187.957C325.68 189.084 327.986 190.589 330.621 192.112C333.256 193.634 335.715 194.88 337.512 195.746C338.379 196.153 339.093 196.498 339.648 196.759C340.158 196.996 340.436 197.138 340.424 197.155Z" fill="#263238"/>
<path d="M327.38 190.997C327.301 191.008 326.859 188.014 326.394 184.307C325.93 180.599 325.618 177.594 325.697 177.583C325.777 177.571 326.219 180.565 326.683 184.273C327.154 187.98 327.465 190.991 327.38 190.997Z" fill="#263238"/>
<path d="M306.062 129.416C306.073 129.427 305.994 129.552 305.829 129.773C305.637 130.033 305.399 130.35 305.11 130.735C304.447 131.595 303.551 132.75 302.497 134.12L302.475 133.938C303.733 134.923 305.183 136.067 306.73 137.278C306.861 137.38 306.991 137.482 307.116 137.584L306.906 137.606C308.266 135.908 309.524 134.329 310.589 132.999L310.612 133.169C309.49 132.257 308.549 131.488 307.841 130.91C307.541 130.656 307.286 130.441 307.082 130.265C306.912 130.112 306.821 130.027 306.827 130.022C306.832 130.01 306.94 130.078 307.127 130.209C307.342 130.367 307.609 130.565 307.926 130.797C308.651 131.352 309.615 132.093 310.765 132.971L310.861 133.044L310.788 133.14C309.734 134.482 308.487 136.067 307.144 137.782L307.053 137.895L306.934 137.804C306.81 137.702 306.679 137.6 306.549 137.499C305.013 136.276 303.568 135.127 302.316 134.131L302.214 134.052L302.293 133.95C303.381 132.614 304.299 131.476 304.985 130.633C305.297 130.265 305.552 129.959 305.761 129.716C305.948 129.512 306.05 129.405 306.062 129.416Z" fill="#263238"/>
<path d="M316.874 198.021C312.755 197.942 307.269 197.127 304.708 196.719C299.937 195.961 299.993 195.525 300.158 194.981C300.611 193.521 308.59 196 307.162 194.466C305.728 192.932 297.081 192.57 297.625 191.065C298.327 189.101 306.635 191.851 307.354 192.033C308.051 192.208 308.335 191.172 307.677 191.048C306.731 190.861 296.86 188.682 297.528 186.746C297.902 185.671 299.761 186.571 299.761 186.571C299.761 186.571 308.867 189.299 309.156 188.371C309.445 187.431 304.153 185.648 302.322 185.173C300.52 184.703 299.988 183.65 300.838 183.022C301.416 182.592 307.037 183.91 308.833 184.425C310.63 184.935 315.531 186.429 313.661 183.718C313.633 183.673 313.61 183.633 313.582 183.588C311.667 180.973 311.06 178.318 311.406 177.435C311.746 176.569 312.964 176.626 313.423 177.441C313.508 177.566 313.576 177.707 313.61 177.877C313.622 177.945 313.656 178.035 313.678 178.115C314.013 178.981 314.738 180.13 315.333 180.996C315.894 181.816 316.591 182.541 317.396 183.129C318.325 183.809 320.677 186.288 321.385 186.723" fill="#FFBE9D"/>
<path d="M148.234 164.655C142.93 164.559 138.635 160.32 138.471 155.022C138.335 150.613 138.238 146.362 138.238 146.362C138.238 146.362 130.129 145.609 129.534 137.595C128.939 129.58 129.194 111.078 129.194 111.078C138.244 106.516 149.056 107.201 157.454 112.872L158.701 113.715L158.355 154.807C158.315 160.331 153.765 164.751 148.234 164.655Z" fill="#B78876"/>
<path d="M138.04 132.659C138.04 132.574 137.349 132.478 136.227 132.393C135.938 132.382 135.705 132.331 135.671 132.172C135.609 132.003 135.7 131.686 135.83 131.335C136.068 130.588 136.312 129.829 136.567 129.037C137.575 125.765 138.261 123.071 138.097 123.02C137.932 122.969 136.975 125.579 135.966 128.85C135.728 129.648 135.501 130.412 135.275 131.165C135.19 131.505 135.014 131.906 135.19 132.376C135.286 132.608 135.524 132.767 135.717 132.806C135.909 132.852 136.074 132.84 136.215 132.84C137.337 132.806 138.034 132.744 138.04 132.659Z" fill="#263238"/>
<path d="M141.706 133.656C139.474 134.697 138.437 135.008 136.38 135.563C136.38 135.563 137.796 137.544 140.063 136.553C142.409 135.529 141.706 133.656 141.706 133.656Z" fill="white"/>
<path d="M138.221 146.249C138.221 146.249 143.321 146.351 148.506 142.632C148.506 142.632 146.387 148.558 138.329 148.326L138.221 146.249Z" fill="#A36957"/>
<path d="M158.258 123.626C158.264 122.981 158.768 122.432 159.414 122.415C160.91 122.375 163.364 122.969 163.596 127.095C163.925 132.993 158.241 131.522 158.224 131.357C158.207 131.222 158.241 125.918 158.258 123.626Z" fill="#B78876"/>
<path d="M159.528 129.031C159.551 129.008 159.636 129.099 159.811 129.167C159.987 129.235 160.282 129.275 160.582 129.139C161.194 128.873 161.664 127.854 161.63 126.79C161.613 126.252 161.477 125.748 161.262 125.335C161.058 124.916 160.763 124.628 160.446 124.588C160.129 124.531 159.919 124.735 159.857 124.905C159.789 125.075 159.828 125.188 159.8 125.199C159.783 125.216 159.67 125.109 159.704 124.86C159.721 124.741 159.783 124.599 159.913 124.475C160.049 124.35 160.253 124.282 160.474 124.294C160.933 124.299 161.364 124.696 161.602 125.148C161.863 125.601 162.033 126.167 162.05 126.773C162.078 127.961 161.528 129.11 160.69 129.405C160.282 129.535 159.925 129.433 159.738 129.303C159.545 129.173 159.505 129.042 159.528 129.031Z" fill="#A36957"/>
<path d="M131.71 124.667C131.733 125.245 132.237 125.697 132.838 125.692C133.438 125.681 133.909 125.211 133.892 124.633C133.869 124.056 133.365 123.603 132.764 123.609C132.158 123.615 131.687 124.09 131.71 124.667Z" fill="#263238"/>
<path d="M129.857 123.575C130.004 123.705 130.781 123.037 131.954 122.958C133.121 122.862 134.022 123.399 134.141 123.247C134.198 123.179 134.045 122.935 133.648 122.686C133.263 122.443 132.617 122.222 131.886 122.279C131.155 122.335 130.565 122.647 130.231 122.947C129.891 123.252 129.789 123.513 129.857 123.575Z" fill="#263238"/>
<path d="M143.344 124.464C143.367 125.041 143.871 125.494 144.472 125.488C145.072 125.477 145.543 125.007 145.526 124.43C145.503 123.852 144.999 123.399 144.398 123.405C143.797 123.416 143.327 123.886 143.344 124.464Z" fill="#263238"/>
<path d="M141.741 123.575C141.888 123.705 142.67 123.037 143.837 122.958C145.004 122.862 145.905 123.399 146.024 123.247C146.081 123.179 145.928 122.935 145.531 122.686C145.146 122.443 144.5 122.222 143.769 122.279C143.038 122.335 142.449 122.647 142.115 122.947C141.775 123.252 141.673 123.513 141.741 123.575Z" fill="#263238"/>
<path d="M149.486 108.31C148.393 110.783 148.942 113.891 150.824 115.838C151.617 116.658 152.609 117.281 153.294 118.186C154.717 120.071 154.485 122.664 154.706 125.012C154.808 126.099 155.063 127.254 155.862 127.995C156.661 128.737 158.157 128.788 158.718 127.848C158.888 127.565 158.95 127.231 159.012 126.909C159.505 124.294 159.998 121.679 160.491 119.064C160.86 117.105 161.228 115.09 160.888 113.126C160.491 110.828 159.086 108.729 157.12 107.478C155.153 106.227 152.649 105.853 150.399 106.465" fill="#263238"/>
<path d="M150.716 106.651C147.991 106.131 146.461 105.259 144.534 104.393C142.607 103.527 140.426 103.12 138.391 103.697C137.02 104.082 135.722 104.908 134.306 104.891C132.906 104.88 131.648 104.042 130.305 103.623C128.486 103.052 126.457 103.255 124.757 104.189C123.437 104.914 122.253 106.21 122.139 107.795C122.026 109.38 123.443 111.015 124.859 110.568C123.375 111.083 122.774 113.262 123.516 114.723C124.259 116.183 125.97 116.845 127.511 116.602C129.047 116.358 130.413 115.356 131.512 114.168C131.546 115.934 133.32 117.173 134.957 117.122C136.601 117.071 138.085 116.087 139.44 115.073C140.794 114.06 142.165 112.957 143.775 112.6C144.897 112.351 146.058 112.481 147.197 112.351C148.336 112.215 149.549 111.723 150.099 110.636C150.648 109.549 152.83 108.31 151.685 108.276" fill="#263238"/>
<path d="M134.583 115.34C134.6 115.317 134.782 115.504 135.19 115.662C135.598 115.821 136.249 115.883 137.009 115.656C137.383 115.549 137.785 115.379 138.182 115.141C138.578 114.904 138.981 114.604 139.411 114.287C139.842 113.975 140.301 113.647 140.834 113.381C141.361 113.115 141.984 112.94 142.613 112.934C143.877 112.911 145.016 113.251 146.047 113.16C147.084 113.104 147.9 112.532 148.359 111.904C148.835 111.281 148.999 110.642 149.045 110.206C149.09 109.77 149.045 109.521 149.073 109.515C149.084 109.515 149.101 109.572 149.124 109.691C149.152 109.81 149.164 109.985 149.158 110.212C149.147 110.664 149.005 111.349 148.523 112.023C148.285 112.357 147.962 112.691 147.543 112.951C147.129 113.211 146.608 113.381 146.064 113.426C144.965 113.534 143.809 113.2 142.613 113.228C141.406 113.228 140.414 113.902 139.559 114.508C139.128 114.813 138.714 115.113 138.295 115.351C137.876 115.594 137.451 115.758 137.054 115.855C136.255 116.064 135.552 115.968 135.139 115.764C134.929 115.662 134.787 115.555 134.697 115.475C134.617 115.39 134.578 115.345 134.583 115.34Z" fill="#263238"/>
<path d="M149.889 103.855C149.974 103.872 149.792 104.727 150.053 105.735C150.297 106.748 150.863 107.416 150.79 107.472C150.744 107.534 150.03 106.906 149.764 105.808C149.486 104.71 149.826 103.821 149.889 103.855Z" fill="#263238"/>
<path d="M152.909 103.731C152.971 103.793 152.24 104.489 151.691 105.57C151.13 106.646 150.994 107.642 150.909 107.631C150.835 107.636 150.841 106.572 151.43 105.434C152.014 104.291 152.869 103.669 152.909 103.731Z" fill="#263238"/>
<path d="M190.802 187.652L203.139 219.359H184.257L175.457 196.787L190.802 187.652Z" fill="#B78876"/>
<path d="M123.936 161.916C123.936 161.916 107.678 178.641 100.64 178.641C98.3392 178.641 96.5372 150.782 96.5089 142.751C97.1379 141.279 97.4155 140.713 98.0899 139.864C98.7245 139.066 99.3309 138.245 100.13 137.611C101.099 136.842 102.431 135.868 103.32 135.557C104.42 135.172 104.51 133.666 103.513 133.366C102.516 133.067 99.4612 134.057 96.7242 136.649C93.9929 139.236 94.8089 133.446 95.0695 131.329C95.3302 129.212 95.8289 122.641 95.2395 122.058C94.3782 121.209 93.2789 121.996 93.0692 124.112C92.8539 126.258 91.7772 132.546 90.6665 132.387C89.5672 132.229 91.0405 121.475 91.0405 121.475C91.0405 121.475 91.7262 119.216 90.4455 118.99C88.1392 118.577 87.4195 130.101 87.3742 131.199C87.3459 131.963 86.1275 131.833 86.2012 131.012C86.2805 130.169 87.9182 120.309 85.5722 119.867C83.7702 119.528 84.8922 129.348 83.4132 131.233C81.9342 133.117 83.3282 123.682 81.5942 123.428C80.9482 123.331 80.4495 123.354 80.4325 128.867C80.4212 131.833 81.5659 136.31 81.1239 142.015C81.8719 158.859 81.0445 206.16 99.8125 200.556C120.451 194.387 134.549 180.888 134.549 180.888L123.936 161.916Z" fill="#B78876"/>
<path d="M169.485 176.903C169.507 176.898 169.57 177.135 169.672 177.571C169.774 178.001 169.904 178.635 170.046 179.411C170.34 180.973 170.68 183.135 170.947 185.546C171.213 187.951 171.349 190.142 171.406 191.727C171.434 192.519 171.445 193.164 171.44 193.606C171.44 194.047 171.428 194.296 171.406 194.296C171.383 194.296 171.36 194.053 171.326 193.611C171.292 193.108 171.247 192.485 171.196 191.738C171.088 190.159 170.918 187.98 170.652 185.574C170.386 183.174 170.074 181.007 169.836 179.445C169.723 178.709 169.626 178.086 169.553 177.588C169.49 177.152 169.462 176.909 169.485 176.903Z" fill="#263238"/>
<path d="M121.182 219.359L173.156 219.625L171.405 208.667C172.21 201.122 171.326 193.04 171.326 193.04L173.955 200.166L195.438 189.434C195.438 189.434 187.629 168.634 181.09 161.593C172.828 152.69 157.97 153.578 157.97 153.578L147.928 160.393L138.686 153.89C138.686 153.89 131.342 154.557 124.406 158.038L123.93 158.174L123.936 158.276C118.484 161.123 110.71 168.051 103.298 174.781L111.849 183.095L121.323 191.908C121.323 191.908 122.921 191.727 122.944 191.84C123.103 192.762 121.182 219.359 121.182 219.359Z" fill="#00629B"/>
<path opacity="0.2" d="M169.734 173.581L176.8 198.745L173.967 200.16L171.337 193.034C171.332 193.034 168.77 178.114 169.734 173.581Z" fill="#00629B"/>
<path d="M138.119 153.765V151.048C138.119 151.048 146.234 150.42 147.877 159.997C147.877 159.997 150.524 151.048 158.395 150.154L159.517 154.337C159.517 154.337 155.788 165.991 155.244 166.087C154.7 166.189 147.872 168.181 147.872 168.181L143.916 167.287L139.519 162.289L138.119 153.765Z" fill="#015C92"/>
<path d="M159.709 154.014C159.72 154.031 159.562 154.195 159.261 154.49C158.967 154.784 158.536 155.208 158.026 155.752C157.012 156.838 155.686 158.435 154.507 160.376C154.258 160.778 154.031 161.185 153.81 161.576L153.68 161.814L153.555 161.576C152.654 159.895 151.861 158.406 151.249 157.257C151.096 157.003 150.92 156.799 150.727 156.669C150.54 156.538 150.342 156.482 150.183 156.471C149.855 156.448 149.702 156.584 149.69 156.555C149.679 156.555 149.821 156.374 150.189 156.363C150.365 156.363 150.591 156.408 150.812 156.538C151.033 156.674 151.237 156.889 151.413 157.15C152.053 158.219 152.869 159.719 153.816 161.434H153.561C153.776 161.038 154.008 160.631 154.258 160.217C155.453 158.253 156.813 156.663 157.879 155.605C158.411 155.073 158.87 154.671 159.188 154.399C159.505 154.133 159.692 153.997 159.709 154.014Z" fill="#263238"/>
<path d="M137.592 154.495C137.609 154.484 137.745 154.631 137.977 154.903C138.21 155.18 138.544 155.582 138.946 156.086C139.757 157.088 140.856 158.491 142.057 160.048C142.125 160.133 142.188 160.218 142.25 160.297L142.006 160.314C142.437 159.51 142.477 158.593 142.675 157.789C142.856 156.986 143.236 156.256 143.797 155.899C144.358 155.554 144.93 155.576 145.259 155.712C145.429 155.774 145.531 155.871 145.599 155.933C145.661 156.001 145.69 156.04 145.678 156.046C145.661 156.069 145.531 155.91 145.219 155.814C144.913 155.718 144.392 155.735 143.905 156.063C143.423 156.397 143.094 157.065 142.93 157.84C142.749 158.616 142.732 159.555 142.261 160.444L142.154 160.642L142.012 160.461C141.95 160.382 141.887 160.297 141.819 160.212C140.618 158.655 139.547 157.235 138.782 156.199C138.397 155.678 138.091 155.259 137.887 154.959C137.683 154.676 137.575 154.507 137.592 154.495Z" fill="#263238"/>
<path d="M143.361 219.359C143.355 219.359 143.355 219.308 143.355 219.206C143.361 219.087 143.367 218.94 143.372 218.753C143.395 218.334 143.429 217.757 143.469 217.021C143.565 215.499 143.701 213.331 143.871 210.665C144.239 205.277 144.749 197.873 145.31 189.695C145.905 181.516 146.444 174.113 146.84 168.724C147.05 166.059 147.22 163.896 147.339 162.374C147.401 161.644 147.452 161.066 147.486 160.648C147.503 160.466 147.52 160.319 147.532 160.2C147.543 160.099 147.554 160.048 147.56 160.048C147.566 160.048 147.566 160.099 147.566 160.2C147.56 160.319 147.554 160.466 147.549 160.653C147.526 161.072 147.492 161.649 147.452 162.385C147.356 163.908 147.22 166.076 147.05 168.741C146.682 174.13 146.172 181.533 145.611 189.712C145.016 197.89 144.477 205.288 144.081 210.676C143.871 213.342 143.701 215.504 143.582 217.027C143.52 217.757 143.469 218.334 143.435 218.753C143.418 218.934 143.401 219.081 143.389 219.2C143.378 219.308 143.367 219.359 143.361 219.359Z" fill="#263238"/>
<path d="M124.707 169.008C124.729 169.008 124.707 169.33 124.656 169.908C124.605 170.536 124.542 171.362 124.463 172.353C124.31 174.419 124.151 177.271 123.976 180.43C123.8 183.588 123.607 186.446 123.398 188.512C123.296 189.542 123.194 190.38 123.109 190.951C123.024 191.523 122.967 191.84 122.944 191.84C122.922 191.84 122.944 191.517 122.995 190.94C123.046 190.312 123.109 189.485 123.188 188.495C123.341 186.429 123.5 183.576 123.675 180.418C123.851 177.26 124.044 174.402 124.253 172.341C124.355 171.311 124.457 170.474 124.542 169.902C124.627 169.319 124.69 169.002 124.707 169.008Z" fill="#263238"/>
<path d="M147.306 158.627C147.306 158.627 144.518 162.261 144.926 162.81C145.334 163.353 147.306 165.98 147.306 165.98H149C149 165.98 150.587 161.531 150.179 160.965C149.765 160.404 147.306 158.627 147.306 158.627Z" fill="#E8505B"/>
<path d="M151.584 157.648L148.507 160.053L149.686 162.306L152.848 159.974L151.584 157.648Z" fill="#E8505B"/>
<path d="M142.546 159.165L145.351 161.502L146.903 159.165L143.362 156.476L142.546 159.165Z" fill="#E8505B"/>
<path d="M147.306 165.985L143.022 204.275L147.232 217.587L152.848 204.394L149.153 165.527L147.306 165.985Z" fill="#E8505B"/>
<path d="M177.237 158.865C177.214 158.887 177.067 158.678 176.681 158.486C176.307 158.293 175.65 158.157 174.919 158.384C174.182 158.604 173.434 159.182 172.726 159.929C172.006 160.665 171.304 161.57 170.72 162.606C169.547 164.689 169.099 166.857 169.02 168.407C168.924 169.97 169.128 170.937 169.065 170.949C169.043 170.954 168.992 170.711 168.918 170.275C168.856 169.839 168.793 169.194 168.81 168.402C168.839 166.817 169.258 164.593 170.459 162.464C171.06 161.406 171.78 160.483 172.528 159.742C173.259 158.995 174.058 158.401 174.857 158.186C175.656 157.965 176.347 158.152 176.732 158.384C176.931 158.502 177.055 158.621 177.135 158.712C177.214 158.802 177.242 158.859 177.237 158.865Z" fill="#263238"/>
<path d="M217.736 111.485C214.109 113.709 211.588 117.428 210.086 121.412C208.59 125.391 208.023 129.653 207.581 133.887C206.414 145.054 206.017 156.301 206.408 167.524C220.144 169.262 233.982 171 247.792 170.06C245.395 154.308 243.882 138.574 245.797 122.76" fill="#263238"/>
<path d="M248.58 242.401L238.584 222.2L242.403 207.428C242.851 210.558 243.247 213.275 243.247 213.275L264.696 212.143C265.495 212.103 266.084 211.384 265.971 210.592L261.777 181.041C261.777 181.041 260.434 167.332 247.446 162.238C247.429 162.233 247.407 162.227 247.39 162.221C246.868 162.018 246.324 161.831 245.763 161.661C228.248 155.594 211.843 155.633 193.585 161.854C193.585 161.854 185.476 164.033 181.543 174.6C177.61 185.167 173.598 200.698 173.598 200.698L191.811 207.122L191.93 204.049L195.953 219.421L187.125 241.812L217.923 242.571L248.58 242.401Z" fill="#E8505B"/>
<path d="M173.643 200.522L171.598 210.173C169.841 218.465 175.989 226.977 184.421 227.934L229.245 232.53C239.195 233.656 248.12 226.366 248.993 216.404L192.474 211.022L192.831 205.605L173.643 200.522Z" fill="#E8505B"/>
<path d="M229.704 210.365L233.183 209.72C233.183 209.72 241.434 200.704 242.981 200.574C244.256 200.466 251.277 200.534 253.719 200.562C254.184 200.568 254.558 200.947 254.558 201.411C254.558 201.87 254.195 202.243 253.742 202.26L245.446 202.583L245.406 203.251L253.714 203.358C254.558 203.42 255.102 204.762 252.393 205L245.446 205.249V205.679L252.49 206.664C252.847 206.715 253.782 206.896 253.793 207.252C253.793 207.252 254.218 208.135 252.212 208.384C251.521 208.469 245.406 208.265 245.406 208.265L245.644 208.814L251.974 210.179C252.433 210.28 252.739 210.716 252.677 211.18C252.609 211.656 252.184 211.995 251.702 211.95L244.936 211.322L238.3 216.62H229.426L229.704 210.365Z" fill="#FFBE9D"/>
<path d="M207.672 157.518C207.672 157.518 216.404 202.119 219.487 201.79C222.564 201.462 236.997 159.057 236.997 159.057C236.997 159.057 218.546 153.437 207.672 157.518Z" fill="#FAFAFA"/>
<path d="M246.313 200.692C246.234 200.692 246.166 197.619 246.166 193.821C246.166 190.029 246.234 186.95 246.313 186.95C246.392 186.95 246.46 190.023 246.46 193.821C246.46 197.613 246.398 200.692 246.313 200.692Z" fill="#263238"/>
<path d="M192.707 200.981C192.667 200.975 192.741 200.223 192.888 199.006C193.041 197.789 193.268 196.108 193.534 194.257C193.806 192.406 194.067 190.731 194.271 189.52C194.475 188.308 194.622 187.567 194.662 187.573C194.701 187.578 194.628 188.337 194.48 189.554C194.327 190.77 194.101 192.451 193.834 194.302C193.562 196.153 193.302 197.828 193.098 199.034C192.894 200.24 192.746 200.987 192.707 200.981Z" fill="#263238"/>
<path d="M217.934 242.576C217.923 242.576 217.917 242.435 217.906 242.163C217.9 241.863 217.895 241.467 217.889 240.98C217.883 239.95 217.889 238.462 217.929 236.622C217.997 232.943 218.195 227.866 218.45 222.263C218.705 216.654 218.937 211.582 219.056 207.903C219.113 206.092 219.153 204.609 219.187 203.551C219.204 203.058 219.215 202.668 219.221 202.368C219.232 202.096 219.243 201.955 219.255 201.955C219.266 201.955 219.272 202.096 219.283 202.368C219.289 202.668 219.294 203.064 219.3 203.551C219.306 204.581 219.3 206.069 219.26 207.909C219.192 211.588 218.994 216.665 218.739 222.274C218.484 227.877 218.252 232.954 218.133 236.628C218.076 238.439 218.036 239.922 218.002 240.98C217.985 241.473 217.974 241.863 217.968 242.163C217.951 242.435 217.94 242.576 217.934 242.576Z" fill="#263238"/>
<path d="M236.917 158.972C236.934 158.972 236.946 159.165 237.014 159.527C237.076 159.889 237.206 160.416 237.461 161.067C237.711 161.718 238.096 162.482 238.595 163.342C239.082 164.208 239.7 165.17 240.204 166.33C240.697 167.479 241.139 168.872 240.884 170.383C240.765 171.13 240.431 171.86 239.972 172.517C239.518 173.173 238.952 173.773 238.374 174.362C237.212 175.545 235.982 176.779 234.974 178.256C233.971 179.722 233.228 181.494 233.223 183.378C233.217 184.318 233.438 185.224 233.823 186.061C234.192 186.905 234.651 187.714 234.923 188.603C235.059 189.044 235.138 189.514 235.104 189.978C235.07 190.442 234.917 190.895 234.673 191.28C234.18 192.055 233.449 192.553 232.786 193.046C230.117 195.01 227.715 196.781 225.686 198.27C223.674 199.736 222.037 200.93 220.886 201.773C220.331 202.17 219.889 202.487 219.572 202.713C219.43 202.809 219.317 202.888 219.226 202.951C219.147 203.002 219.107 203.03 219.101 203.024C219.096 203.019 219.135 202.985 219.209 202.928C219.294 202.86 219.407 202.77 219.538 202.668C219.849 202.43 220.28 202.102 220.818 201.683C221.957 200.822 223.572 199.606 225.561 198.106C227.579 196.6 229.97 194.812 232.622 192.831C233.279 192.338 233.982 191.84 234.43 191.133C234.651 190.782 234.781 190.38 234.815 189.961C234.843 189.542 234.775 189.112 234.645 188.693C234.39 187.85 233.931 187.052 233.551 186.186C233.155 185.331 232.917 184.363 232.922 183.384C232.928 181.42 233.704 179.592 234.73 178.098C235.761 176.586 237.008 175.347 238.175 174.175C239.337 173.021 240.408 171.787 240.64 170.343C240.895 168.911 240.482 167.553 240.011 166.415C239.53 165.266 238.929 164.304 238.453 163.427C237.971 162.555 237.597 161.774 237.359 161.106C237.116 160.444 237.008 159.901 236.963 159.533C236.934 159.352 236.929 159.21 236.923 159.114C236.912 159.018 236.912 158.972 236.917 158.972Z" fill="#263238"/>
<path d="M219.447 201.337C219.447 201.343 219.402 201.337 219.311 201.32C219.203 201.298 219.073 201.275 218.909 201.247C218.557 201.173 218.042 201.049 217.396 200.834C216.115 200.398 214.273 199.577 212.415 197.975C211.485 197.183 210.573 196.187 209.768 194.998C208.969 193.804 208.289 192.406 207.842 190.849C207.383 189.299 207.167 187.589 207.252 185.835C207.286 184.957 207.434 184.057 207.609 183.18C207.768 182.309 207.915 181.386 207.683 180.531C207.57 180.107 207.32 179.739 206.997 179.462C206.663 179.19 206.255 179.02 205.836 178.879C205.416 178.737 204.98 178.618 204.555 178.448C204.13 178.279 203.739 178.018 203.405 177.707C202.759 177.056 202.402 176.201 202.237 175.369C202.062 174.532 202.056 173.688 202.101 172.885C202.396 169.67 203.144 166.851 203.96 164.559C204.782 162.266 205.677 160.506 206.34 159.323C206.674 158.735 206.946 158.282 207.145 157.982C207.235 157.846 207.309 157.733 207.366 157.642C207.417 157.569 207.445 157.529 207.451 157.535C207.456 157.535 207.434 157.58 207.394 157.659C207.343 157.755 207.275 157.869 207.196 158.016C207.014 158.321 206.759 158.786 206.442 159.38C205.813 160.574 204.952 162.34 204.158 164.627C203.371 166.908 202.651 169.726 202.373 172.896C202.334 173.688 202.345 174.503 202.515 175.307C202.674 176.111 203.014 176.903 203.609 177.498C203.915 177.781 204.266 178.018 204.668 178.177C205.065 178.341 205.496 178.454 205.932 178.601C206.363 178.743 206.81 178.924 207.19 179.235C207.564 179.546 207.847 179.977 207.972 180.452C208.227 181.403 208.057 182.348 207.904 183.231C207.723 184.12 207.587 184.98 207.547 185.846C207.462 187.572 207.666 189.248 208.114 190.77C208.975 193.844 210.749 196.243 212.562 197.817C214.381 199.413 216.189 200.251 217.447 200.72C218.081 200.947 218.591 201.094 218.931 201.185C219.09 201.224 219.22 201.258 219.322 201.286C219.402 201.32 219.447 201.332 219.447 201.337Z" fill="#263238"/>
<path d="M243.032 210.428L205.485 209.216L205.541 221.663L230.401 227.125L247.894 229.915C258.768 229.915 267.461 219.948 265.778 209.222L265.733 209.233L243.032 210.428Z" fill="#E8505B"/>
<path d="M253.368 210.19C253.368 210.201 253.198 210.212 252.88 210.224C252.535 210.235 252.07 210.246 251.486 210.263C250.245 210.286 248.5 210.32 246.352 210.354C242.017 210.416 236.028 210.49 229.409 210.427C222.79 210.359 216.801 210.122 212.471 209.833C210.307 209.686 208.556 209.55 207.349 209.426C206.765 209.363 206.306 209.318 205.96 209.284C205.643 209.25 205.479 209.227 205.479 209.216C205.479 209.205 205.649 209.21 205.966 209.227C206.312 209.25 206.776 209.278 207.36 209.312C208.567 209.397 210.318 209.505 212.483 209.624C216.812 209.861 222.796 210.071 229.409 210.133C236.022 210.195 242.012 210.156 246.347 210.144C248.494 210.144 250.24 210.144 251.481 210.144C252.064 210.15 252.529 210.156 252.875 210.161C253.198 210.173 253.368 210.178 253.368 210.19Z" fill="#263238"/>
<path d="M205.161 210.365L201.682 209.72C201.682 209.72 193.431 200.704 191.884 200.574C190.609 200.466 183.588 200.534 181.146 200.562C180.681 200.568 180.307 200.947 180.307 201.411C180.307 201.87 180.67 202.243 181.123 202.26L189.419 202.583L189.459 203.251L181.152 203.358C180.307 203.42 179.763 204.762 182.472 205L189.419 205.249V205.679L182.376 206.664C182.019 206.715 181.084 206.896 181.072 207.252C181.072 207.252 180.647 208.135 182.653 208.384C183.345 208.469 189.459 208.265 189.459 208.265L189.221 208.814L182.891 210.179C182.432 210.28 182.126 210.716 182.189 211.18C182.257 211.656 182.687 211.995 183.163 211.95L189.929 211.322L196.565 216.62H205.439L205.161 210.365Z" fill="#FFBE9D"/>
<path d="M247.226 229.711C247.226 229.722 247.078 229.711 246.801 229.683C246.495 229.649 246.092 229.609 245.588 229.552C244.534 229.434 243.01 229.241 241.128 228.981C237.371 228.46 232.186 227.639 226.503 226.53C220.819 225.415 215.708 224.221 212.03 223.287C210.188 222.817 208.709 222.421 207.684 222.132C207.196 221.991 206.805 221.877 206.511 221.793C206.244 221.713 206.103 221.662 206.108 221.657C206.108 221.645 206.256 221.674 206.528 221.736C206.828 221.81 207.225 221.9 207.718 222.019C208.777 222.279 210.262 222.636 212.081 223.083C215.77 223.966 220.881 225.126 226.559 226.241C232.237 227.351 237.405 228.205 241.157 228.777C243.01 229.054 244.517 229.281 245.599 229.439C246.104 229.518 246.5 229.575 246.806 229.626C247.084 229.677 247.231 229.705 247.226 229.711Z" fill="#263238"/>
<path d="M205.876 221.719C205.836 221.725 205.7 221.052 205.553 219.948C205.4 218.844 205.241 217.316 205.156 215.618C205.071 213.92 205.071 212.38 205.105 211.271C205.145 210.156 205.207 209.471 205.247 209.477C205.292 209.477 205.298 210.167 205.315 211.277C205.332 212.386 205.366 213.92 205.451 215.607C205.536 217.293 205.666 218.821 205.762 219.931C205.853 221.029 205.915 221.714 205.876 221.719Z" fill="#263238"/>
<path d="M209.978 222.206C209.955 222.212 209.899 222.042 209.814 221.731C209.723 221.419 209.615 220.972 209.502 220.406C209.27 219.285 209.026 217.712 208.918 215.957C208.811 214.208 208.862 212.618 208.958 211.475C209.003 210.903 209.06 210.439 209.111 210.122C209.162 209.805 209.196 209.629 209.219 209.635C209.264 209.641 209.213 210.348 209.168 211.486C209.122 212.629 209.111 214.203 209.213 215.94C209.321 217.678 209.525 219.24 209.706 220.367C209.887 221.499 210.023 222.195 209.978 222.206Z" fill="#263238"/>
<path d="M206.51 211.463C206.544 211.497 206.323 211.656 206.334 212.012C206.34 212.182 206.402 212.392 206.561 212.516C206.714 212.646 206.969 212.652 207.184 212.527C207.4 212.403 207.524 212.176 207.49 211.984C207.462 211.786 207.309 211.622 207.167 211.531C206.861 211.344 206.618 211.458 206.606 211.412C206.572 211.395 206.833 211.169 207.264 211.35C207.462 211.435 207.689 211.622 207.757 211.939C207.83 212.256 207.632 212.618 207.332 212.788C207.037 212.963 206.623 212.958 206.385 212.731C206.147 212.516 206.102 212.222 206.125 212.007C206.187 211.537 206.51 211.424 206.51 211.463Z" fill="#263238"/>
<path d="M213.338 224.045C213.338 224.057 213.202 224.062 212.953 224.057C212.698 224.051 212.33 224.051 211.848 224.062C210.89 224.079 209.508 224.176 207.819 224.442C206.13 224.708 204.141 225.16 201.954 225.743C199.767 226.321 197.37 227.023 194.803 227.577C192.241 228.132 189.737 228.449 187.453 228.375C185.169 228.307 183.135 227.86 181.526 227.243C179.911 226.621 178.726 225.857 177.978 225.245C177.604 224.94 177.327 224.691 177.157 224.504C176.975 224.323 176.89 224.227 176.896 224.221C176.919 224.193 177.287 224.583 178.052 225.155C178.811 225.726 180.001 226.457 181.599 227.045C183.197 227.628 185.209 228.047 187.464 228.104C189.72 228.166 192.196 227.843 194.746 227.289C197.296 226.734 199.693 226.043 201.892 225.477C204.09 224.906 206.091 224.476 207.796 224.232C209.502 223.989 210.896 223.927 211.859 223.944C212.341 223.955 212.715 223.972 212.964 223.994C213.208 224.023 213.338 224.034 213.338 224.045Z" fill="#263238"/>
<path d="M229.857 162.77C230.752 157.795 231.783 152.577 231.783 152.577C231.783 152.577 238.391 152.639 241.196 144.511C243.87 136.757 245.803 118.107 245.803 118.107C237.229 112.719 225.845 113.302 217.957 119.528L211.366 160.042C210.601 164.746 214.041 169.149 219.09 169.924C224.184 170.711 229.007 167.513 229.857 162.77Z" fill="#FFBE9D"/>
<path d="M240.884 132.076C240.805 132.648 240.255 133.05 239.66 132.976C239.065 132.903 238.646 132.382 238.725 131.816C238.805 131.244 239.354 130.842 239.949 130.916C240.544 130.989 240.964 131.51 240.884 132.076Z" fill="#263238"/>
<path d="M242.839 131.182C242.681 131.301 241.972 130.554 240.816 130.356C239.666 130.14 238.714 130.582 238.612 130.418C238.561 130.344 238.742 130.118 239.156 129.914C239.564 129.71 240.233 129.557 240.952 129.688C241.672 129.818 242.233 130.191 242.528 130.52C242.839 130.859 242.913 131.131 242.839 131.182Z" fill="#263238"/>
<path d="M229.018 130.203C228.938 130.774 228.389 131.176 227.794 131.103C227.199 131.029 226.779 130.508 226.859 129.942C226.938 129.371 227.488 128.969 228.083 129.042C228.678 129.11 229.097 129.631 229.018 130.203Z" fill="#263238"/>
<path d="M230.707 129.484C230.548 129.603 229.84 128.856 228.684 128.657C227.534 128.442 226.582 128.884 226.48 128.72C226.429 128.646 226.61 128.42 227.024 128.216C227.432 128.012 228.1 127.859 228.82 127.99C229.54 128.12 230.101 128.493 230.401 128.822C230.707 129.156 230.781 129.433 230.707 129.484Z" fill="#263238"/>
<path d="M233.387 138.778C233.393 138.71 234.135 138.715 235.325 138.772C235.625 138.795 235.914 138.783 235.999 138.591C236.107 138.393 236.039 138.053 235.954 137.685C235.801 136.921 235.642 136.123 235.478 135.285C234.832 131.878 234.418 129.093 234.554 129.071C234.69 129.048 235.331 131.788 235.977 135.195C236.13 136.033 236.277 136.836 236.413 137.6C236.464 137.957 236.589 138.37 236.362 138.783C236.243 138.987 235.999 139.112 235.801 139.129C235.603 139.151 235.433 139.129 235.285 139.112C234.112 138.97 233.381 138.846 233.387 138.778Z" fill="#263238"/>
<path d="M231.778 152.582C231.778 152.582 226.083 151.954 221.09 147.618C221.09 147.618 222.796 153.844 231.319 154.535L231.778 152.582Z" fill="#EB996E"/>
<path d="M232.412 141.477C232.095 140.855 231.421 140.425 230.684 140.379C230.174 140.345 229.624 140.498 229.245 140.849C228.871 141.206 228.701 141.772 228.91 142.208C229.143 142.7 229.777 142.915 230.355 142.858C230.933 142.796 231.472 142.519 231.987 142.236C232.129 142.157 232.276 142.077 232.378 141.953C232.48 141.828 232.531 141.653 232.452 141.523" fill="#EB996E"/>
<path d="M229.851 138.981C230.044 139.004 229.823 140.255 230.741 141.336C231.653 142.417 233.019 142.513 232.996 142.689C233.002 142.768 232.656 142.881 232.09 142.796C231.534 142.717 230.758 142.4 230.197 141.738C229.636 141.075 229.483 140.3 229.534 139.779C229.568 139.242 229.766 138.959 229.851 138.981Z" fill="#263238"/>
<path d="M223.612 113.551C225.85 118.481 233.098 124.48 238.702 126.608C238.192 125.59 235.047 122.731 234.537 121.713C236.798 124.163 240.062 127.491 243.513 128.323C243.921 128.42 244.369 128.505 244.749 128.363C245.264 128.171 245.463 127.639 245.604 127.169C246.216 125.171 246.732 121.645 246.789 119.562C246.845 117.473 246.296 115.288 244.788 113.602C242.879 111.457 239.762 110.432 236.764 109.793C234.248 109.255 231.619 108.915 229.137 109.396C226.655 109.872 224.343 111.298 223.601 113.398" fill="#263238"/>
<path d="M210.261 132.116C210.244 129.874 210.296 127.763 210.477 126.382C211.044 122.029 212.398 106.204 227.029 110.274L225.471 114.326C225.471 114.326 226.593 124.514 219.085 129.982C219.085 129.982 219.119 140.147 213.917 143.815C213.917 143.82 210.29 136.927 210.261 132.116Z" fill="#263238"/>
<path d="M219.396 129.291C218.529 128.963 217.583 128.822 216.671 128.991C215.758 129.161 214.897 129.665 214.381 130.435C213.866 131.204 213.73 132.189 213.888 133.106C214.047 134.017 214.478 134.866 215.016 135.625C215.401 136.168 215.86 136.683 216.45 136.989C217.039 137.295 217.787 137.363 218.365 137.029" fill="#FFBE9D"/>
<path d="M217.945 134.629C218.041 134.68 217.56 135.155 216.778 134.787C216.404 134.612 216.081 134.198 215.922 133.729C215.763 133.248 215.695 132.738 215.741 132.167C215.78 131.601 216.013 131.029 216.398 130.661C216.766 130.282 217.293 130.112 217.696 130.174C218.54 130.304 218.699 130.933 218.602 130.933C218.523 130.989 218.251 130.633 217.673 130.667C217.129 130.672 216.483 131.306 216.438 132.229C216.375 133.168 216.579 134.074 217.033 134.368C217.492 134.714 217.905 134.544 217.945 134.629Z" fill="#EB996E"/>
<path d="M217.934 137.006C215.662 150.539 217.515 164.372 217.917 178.092C217.957 179.405 217.968 180.786 217.367 181.958C216.461 183.729 214.358 184.59 212.369 184.714C210.38 184.839 208.408 184.374 206.425 184.21C206.21 182.897 205.994 181.578 205.785 180.265C205.122 181.782 204.464 183.299 203.801 184.816C204.674 175.188 205.632 165.572 206.669 155.961" fill="#263238"/>
</svg>
